<svg width="34" height="34" viewBox="0 0 34 34" fill="none" xmlns="http://www.w3.org/2000/svg">
<path d="M17 18C19.7614 18 22 15.3137 22 12C22 8.68629 19.7614 6 17 6C14.2386 6 12 8.68629 12 12C12 15.3137 14.2386 18 17 18Z" stroke="white" stroke-width="2" stroke-miterlimit="10"/>
<path d="M8.25749 25H25.729C25.7977 25.0002 25.8639 24.975 25.9142 24.9296C25.9645 24.8841 25.9952 24.8218 26 24.7553C26 23.6344 25.5311 19.0141 16.8577 19.0141C16.6083 19.0141 8.21955 18.4326 8 24.7369C7.99991 24.8044 8.0266 24.8695 8.07454 24.9184C8.12247 24.9674 8.18798 24.9966 8.25749 25V25Z" stroke="white" stroke-width="2" stroke-miterlimit="10"/>
<circle cx="17" cy="17" r="16" stroke="white" stroke-width="2"/>
</svg>
